<?xml version="1.0" standalone="no"?>
<!DOCTYPE svg PUBLIC "-//W3C//DTD SVG 20010904//EN"
 "http://www.w3.org/TR/2001/REC-SVG-20010904/DTD/svg10.dtd">
<svg version="1.0" xmlns="http://www.w3.org/2000/svg"
 width="256.000000pt" height="256.000000pt" viewBox="0 0 256.000000 256.000000"
 preserveAspectRatio="xMidYMid meet">
<metadata>
Created by potrace 1.14, written by Peter Selinger 2001-2017
</metadata>
<g transform="translate(0.000000,256.000000) scale(0.100000,-0.100000)"
fill="#000000" stroke="none">
<path d="M284 2551 c-95 -23 -177 -91 -218 -180 l-21 -46 0 -1005 0 -1005 28
-57 c32 -65 89 -121 156 -152 l46 -21 1005 0 1005 0 57 28 c65 32 121 89 152
156 l21 46 0 1005 0 1005 -28 57 c-32 65 -89 121 -156 152 -46 21 -48 21
-1031 23 -542 1 -999 -2 -1016 -6z m377 -963 c236 -101 240 -103 232 -128 -10
-32 -10 -247 0 -280 8 -25 3 -27 -231 -127 -252 -108 -286 -117 -345 -87 -68
34 -67 27 -67 355 0 327 -1 320 65 354 58 29 94 20 346 -87z m1592 86 c68 -34
67 -28 67 -354 0 -326 1 -323 -64 -354 -63 -30 -97 -21 -351 88 l-240 103 5
34 c6 43 6 213 0 258 l-5 35 240 103 c253 108 288 117 348 87z m-747 -131 c22
-12 55 -38 72 -58 l32 -36 0 -129 0 -129 -32 -36 c-59 -68 -93 -79 -269 -83
-195 -5 -252 8 -316 73 l-43 42 0 131 0 131 31 36 c65 74 108 85 319 82 147
-2 169 -5 206 -24z m392 -805 l3 -37 52 -3 c44 -3 52 -6 52 -23 0 -17 -8 -20
-52 -23 l-53 -3 0 -114 c0 -136 8 -151 76 -141 44 6 66 -12 41 -32 -40 -32
-133 -16 -156 26 -6 12 -11 74 -11 141 l0 121 -30 0 c-25 0 -30 4 -30 25 0 21
5 25 30 25 28 0 30 2 30 41 0 36 2 40 23 37 18 -2 23 -10 25 -40z m-1417 -61
c48 -32 79 -83 79 -128 l0 -39 -146 0 -145 0 6 -22 c13 -42 36 -69 70 -84 47
-19 84 -18 130 6 29 15 42 17 52 8 21 -17 -20 -54 -77 -68 -128 -31 -242 67
-228 195 7 56 45 116 89 138 50 25 129 22 170 -6z m219 -123 l63 -145 32 68
c17 37 46 103 65 146 28 65 37 77 57 77 30 0 32 7 -56 -191 -64 -143 -71 -154
-97 -157 -28 -3 -31 1 -81 115 -28 65 -63 144 -77 176 l-26 57 28 0 c27 0 32
-8 92 -146z m521 123 c48 -32 79 -83 79 -128 l0 -39 -146 0 -145 0 6 -22 c13
-42 36 -69 70 -84 47 -19 84 -18 130 6 29 15 42 17 52 8 21 -17 -20 -54 -77
-68 -128 -31 -242 67 -228 195 7 56 45 116 89 138 50 25 129 22 170 -6z m219
-3 l0 -25 32 22 c38 27 124 37 168 19 62 -26 75 -60 78 -207 l4 -133 -26 0
-26 0 0 105 c0 159 -21 195 -115 195 -38 0 -52 -5 -76 -29 -29 -29 -29 -30
-29 -150 l0 -121 -30 0 -30 0 0 175 0 175 25 0 c20 0 25 -5 25 -26z m852 16
c44 -13 52 -22 35 -43 -11 -15 -16 -15 -59 -1 -60 20 -112 12 -134 -21 -26
-40 -6 -60 81 -80 116 -25 155 -70 124 -138 -27 -59 -161 -83 -239 -43 -45 24
-43 21 -31 45 11 20 11 20 54 1 71 -33 159 -23 172 20 4 12 1 27 -5 35 -12 14
-25 19 -133 46 -140 35 -101 189 48 189 28 0 67 -5 87 -10z"/>
<path d="M340 643 c-20 -10 -43 -33 -52 -53 l-18 -35 116 -3 c64 -1 119 0 122
2 9 10 -20 65 -43 80 -38 25 -86 28 -125 9z"/>
<path d="M1080 643 c-20 -10 -43 -33 -52 -53 l-18 -35 116 -3 c64 -1 119 0
122 2 9 10 -20 65 -43 80 -38 25 -86 28 -125 9z"/>
</g>
</svg>
