<svg width="3419" height="576" viewBox="0 0 3419 576" fill="none" xmlns="http://www.w3.org/2000/svg">
<path d="M2131.54 432.765C2108.1 432.765 2087.56 428.157 2069.92 418.94C2052.54 409.46 2038.97 396.557 2029.23 380.23C2019.75 363.903 2015.01 345.338 2015.01 324.535C2015.01 303.468 2019.62 284.903 2028.84 268.84C2038.32 252.513 2051.22 239.742 2067.55 230.525C2084.14 221.308 2102.96 216.7 2124.03 216.7C2144.57 216.7 2162.87 221.177 2178.94 230.13C2195 239.083 2207.64 251.723 2216.86 268.05C2226.07 284.377 2230.68 303.6 2230.68 325.72C2230.68 327.827 2230.55 330.197 2230.29 332.83C2230.29 335.463 2230.15 337.965 2229.89 340.335H2054.12V307.55H2203.82L2184.47 317.82C2184.73 305.707 2182.23 295.042 2176.96 285.825C2171.69 276.608 2164.45 269.367 2155.24 264.1C2146.28 258.833 2135.88 256.2 2124.03 256.2C2111.92 256.2 2101.25 258.833 2092.04 264.1C2083.08 269.367 2075.97 276.74 2070.71 286.22C2065.7 295.437 2063.2 306.365 2063.2 319.005V326.905C2063.2 339.545 2066.1 350.737 2071.89 360.48C2077.68 370.223 2085.85 377.728 2096.38 382.995C2106.91 388.262 2119.03 390.895 2132.72 390.895C2144.57 390.895 2155.24 389.052 2164.72 385.365C2174.2 381.678 2182.62 375.885 2190 367.985L2216.46 398.4C2206.98 409.46 2195 418.018 2180.52 424.075C2166.3 429.868 2149.97 432.765 2131.54 432.765ZM2330.34 430L2239.89 219.07H2291.24L2369.05 405.115H2343.77L2424.35 219.07H2471.75L2381.3 430H2330.34ZM2595.97 432.765C2572.53 432.765 2551.99 428.157 2534.35 418.94C2516.97 409.46 2503.41 396.557 2493.66 380.23C2484.18 363.903 2479.44 345.338 2479.44 324.535C2479.44 303.468 2484.05 284.903 2493.27 268.84C2502.75 252.513 2515.65 239.742 2531.98 230.525C2548.57 221.308 2567.4 216.7 2588.46 216.7C2609 216.7 2627.31 221.177 2643.37 230.13C2659.43 239.083 2672.07 251.723 2681.29 268.05C2690.51 284.377 2695.11 303.6 2695.11 325.72C2695.11 327.827 2694.98 330.197 2694.72 332.83C2694.72 335.463 2694.59 337.965 2694.32 340.335H2518.55V307.55H2668.25L2648.9 317.82C2649.16 305.707 2646.66 295.042 2641.39 285.825C2636.13 276.608 2628.89 269.367 2619.67 264.1C2610.72 258.833 2600.31 256.2 2588.46 256.2C2576.35 256.2 2565.69 258.833 2556.47 264.1C2547.52 269.367 2540.41 276.74 2535.14 286.22C2530.14 295.437 2527.63 306.365 2527.63 319.005V326.905C2527.63 339.545 2530.53 350.737 2536.32 360.48C2542.12 370.223 2550.28 377.728 2560.81 382.995C2571.35 388.262 2583.46 390.895 2597.15 390.895C2609 390.895 2619.67 389.052 2629.15 385.365C2638.63 381.678 2647.06 375.885 2654.43 367.985L2680.89 398.4C2671.41 409.46 2659.43 418.018 2644.95 424.075C2630.73 429.868 2614.4 432.765 2595.97 432.765ZM2862.23 216.7C2879.08 216.7 2894.09 219.992 2907.26 226.575C2920.69 233.158 2931.22 243.297 2938.86 256.99C2946.49 270.42 2950.31 287.8 2950.31 309.13V430H2900.94V315.45C2900.94 296.753 2896.46 282.797 2887.51 273.58C2878.82 264.363 2866.57 259.755 2850.77 259.755C2839.18 259.755 2828.91 262.125 2819.96 266.865C2811.01 271.605 2804.03 278.715 2799.03 288.195C2794.29 297.412 2791.92 309.13 2791.92 323.35V430H2742.54V219.07H2789.55V275.95L2781.25 258.57C2788.62 245.14 2799.29 234.87 2813.25 227.76C2827.47 220.387 2843.79 216.7 2862.23 216.7ZM3092.34 432.765C3069.17 432.765 3051.26 426.84 3038.62 414.99C3025.98 402.877 3019.66 385.102 3019.66 361.665V172.46H3069.04V360.48C3069.04 370.487 3071.54 378.255 3076.54 383.785C3081.81 389.315 3089.05 392.08 3098.27 392.08C3109.33 392.08 3118.54 389.183 3125.92 383.39L3139.74 418.545C3133.95 423.285 3126.84 426.84 3118.41 429.21C3109.98 431.58 3101.29 432.765 3092.34 432.765ZM2984.9 260.15V220.65H3125.52V260.15H2984.9ZM3245.53 432.765C3227.89 432.765 3210.91 430.527 3194.58 426.05C3178.52 421.31 3165.74 415.648 3156.26 409.065L3175.22 371.54C3184.7 377.597 3196.03 382.6 3209.19 386.55C3222.36 390.5 3235.53 392.475 3248.69 392.475C3264.23 392.475 3275.42 390.368 3282.27 386.155C3289.38 381.942 3292.93 376.28 3292.93 369.17C3292.93 363.377 3290.56 359.032 3285.82 356.135C3281.08 352.975 3274.9 350.605 3267.26 349.025C3259.62 347.445 3251.06 345.997 3241.58 344.68C3232.37 343.363 3223.02 341.652 3213.54 339.545C3204.32 337.175 3195.9 333.883 3188.26 329.67C3180.62 325.193 3174.43 319.268 3169.69 311.895C3164.95 304.522 3162.58 294.778 3162.58 282.665C3162.58 269.235 3166.4 257.648 3174.04 247.905C3181.68 237.898 3192.34 230.262 3206.03 224.995C3219.99 219.465 3236.45 216.7 3255.41 216.7C3269.63 216.7 3283.98 218.28 3298.46 221.44C3312.95 224.6 3324.93 229.077 3334.41 234.87L3315.45 272.395C3305.44 266.338 3295.3 262.257 3285.03 260.15C3275.03 257.78 3265.02 256.595 3255.01 256.595C3240 256.595 3228.81 258.833 3221.44 263.31C3214.33 267.787 3210.77 273.448 3210.77 280.295C3210.77 286.615 3213.14 291.355 3217.88 294.515C3222.62 297.675 3228.81 300.177 3236.45 302.02C3244.09 303.863 3252.51 305.443 3261.73 306.76C3271.21 307.813 3280.56 309.525 3289.77 311.895C3298.99 314.265 3307.42 317.557 3315.05 321.77C3322.95 325.72 3329.27 331.382 3334.01 338.755C3338.75 346.128 3341.12 355.74 3341.12 367.59C3341.12 380.757 3337.17 392.212 3329.27 401.955C3321.64 411.698 3310.71 419.335 3296.49 424.865C3282.27 430.132 3265.28 432.765 3245.53 432.765Z" fill="#212121"/>
<path d="M641.973 430V153.5H666.068L792.468 369.17H779.828L905.043 153.5H929.138V430H901.093V197.345H907.808L792.468 394.845H778.643L662.513 197.345H670.018V430H641.973ZM1013.3 430V222.625H1041.35V430H1013.3ZM1027.52 176.805C1021.73 176.805 1016.86 174.83 1012.91 170.88C1008.96 166.93 1006.98 162.19 1006.98 156.66C1006.98 151.13 1008.96 146.522 1012.91 142.835C1016.86 138.885 1021.73 136.91 1027.52 136.91C1033.32 136.91 1038.19 138.753 1042.14 142.44C1046.09 146.127 1048.06 150.735 1048.06 156.265C1048.06 162.058 1046.09 166.93 1042.14 170.88C1038.45 174.83 1033.58 176.805 1027.52 176.805Z" fill="#37966F"/>
<path d="M1125.31 430V153.5H1237.88C1267.38 153.5 1293.18 159.425 1315.3 171.275C1337.69 182.862 1355.07 199.057 1367.44 219.86C1379.82 240.663 1386.01 264.627 1386.01 291.75C1386.01 318.873 1379.82 342.837 1367.44 363.64C1355.07 384.443 1337.69 400.77 1315.3 412.62C1293.18 424.207 1267.38 430 1237.88 430H1125.31ZM1154.54 404.72H1236.3C1260.79 404.72 1281.99 399.98 1299.9 390.5C1318.07 380.757 1332.16 367.458 1342.16 350.605C1352.17 333.488 1357.17 313.87 1357.17 291.75C1357.17 269.367 1352.17 249.748 1342.16 232.895C1332.16 216.042 1318.07 202.875 1299.9 193.395C1281.99 183.652 1260.79 178.78 1236.3 178.78H1154.54V404.72ZM1445.72 430V222.625H1473.77V430H1445.72ZM1459.94 176.805C1454.15 176.805 1449.28 174.83 1445.33 170.88C1441.38 166.93 1439.4 162.19 1439.4 156.66C1439.4 151.13 1441.38 146.522 1445.33 142.835C1449.28 138.885 1454.15 136.91 1459.94 136.91C1465.73 136.91 1470.61 138.753 1474.56 142.44C1478.51 146.127 1480.48 150.735 1480.48 156.265C1480.48 162.058 1478.51 166.93 1474.56 170.88C1470.87 174.83 1466 176.805 1459.94 176.805ZM1573.92 376.28L1574.71 340.335L1703.87 222.625H1738.24L1646.99 309.92L1631.19 323.35L1573.92 376.28ZM1551.8 430V136.91H1579.84V430H1551.8ZM1712.56 430L1626.06 322.165L1644.23 300.44L1746.93 430H1712.56ZM1915.13 430V384.18L1913.94 376.675V300.045C1913.94 282.402 1908.94 268.84 1898.93 259.36C1889.19 249.88 1874.58 245.14 1855.09 245.14C1841.66 245.14 1828.89 247.378 1816.77 251.855C1804.66 256.332 1794.39 262.257 1785.96 269.63L1773.32 248.695C1783.86 239.742 1796.5 232.895 1811.24 228.155C1825.99 223.152 1841.53 220.65 1857.85 220.65C1884.71 220.65 1905.39 227.365 1919.87 240.795C1934.62 253.962 1941.99 274.107 1941.99 301.23V430H1915.13ZM1843.63 431.975C1828.1 431.975 1814.54 429.473 1802.95 424.47C1791.63 419.203 1782.94 412.093 1776.88 403.14C1770.82 393.923 1767.79 383.39 1767.79 371.54C1767.79 360.743 1770.3 351 1775.3 342.31C1780.57 333.357 1788.99 326.247 1800.58 320.98C1812.43 315.45 1828.23 312.685 1847.98 312.685H1919.47V333.62H1848.77C1828.76 333.62 1814.8 337.175 1806.9 344.285C1799.26 351.395 1795.44 360.217 1795.44 370.75C1795.44 382.6 1800.05 392.08 1809.27 399.19C1818.49 406.3 1831.39 409.855 1847.98 409.855C1863.78 409.855 1877.34 406.3 1888.66 399.19C1900.25 391.817 1908.68 381.283 1913.94 367.59L1920.26 386.945C1915 400.638 1905.78 411.567 1892.61 419.73C1879.71 427.893 1863.38 431.975 1843.63 431.975Z" fill="#FD5523"/>
<ellipse cx="288" cy="275.351" rx="288" ry="275.351" fill="#212121"/>
<ellipse cx="290.007" cy="283.135" rx="241.84" ry="220.865" fill="white"/>
<path d="M569.98 235.459C569.98 186.43 540.58 139.409 488.248 104.74C435.917 70.0712 364.94 50.5945 290.932 50.5945C216.924 50.5945 145.947 70.0712 93.6151 104.74C41.2835 139.409 6.0215 186.43 6.02148 235.459H290.932H569.98Z" fill="#212121"/>
<ellipse cx="289.004" cy="289.742" rx="128.446" ry="111.292" fill="#212121"/>
<path d="M365.325 302.594C367.332 293.837 357.29 284.901 342.987 278.514C328.685 272.128 309.286 268.54 289.06 268.54C268.833 268.54 249.435 272.128 235.132 278.514C220.83 284.901 212.795 293.562 212.795 302.594L289.06 302.594H365.325Z" fill="#FD5523"/>
<path d="M365.324 297.729C366.328 304.54 363.352 311.97 359.519 318.58C355.686 325.191 350.069 331.198 342.987 336.257C335.905 341.317 327.498 345.33 318.245 348.068C308.992 350.806 299.075 352.216 289.06 352.216C279.044 352.216 269.127 350.806 259.874 348.068C250.621 345.33 242.214 341.317 235.132 336.257C228.05 331.197 222.433 325.191 218.6 318.58C214.767 311.97 210.788 303.567 213.798 296.756L289.06 297.729H365.324Z" fill="#FD5523"/>
<ellipse cx="118.226" cy="256.521" rx="68.0501" ry="65.8183" fill="white"/>
<ellipse cx="118.226" cy="253.948" rx="30.3608" ry="28.3176" fill="#212121"/>
<ellipse cx="118.226" cy="302.493" rx="34.5485" ry="28.3176" fill="white"/>
<ellipse cx="461.417" cy="256.521" rx="68.0501" ry="65.8183" fill="white"/>
<ellipse cx="461.417" cy="253.948" rx="30.3608" ry="28.3176" fill="#212121"/>
<ellipse cx="461.418" cy="302.493" rx="34.5485" ry="28.3176" fill="white"/>
<path d="M303.911 484.9H272.562C254.083 484.964 239.134 496.101 239.082 509.842V533.154C239.134 546.913 254.121 558.058 272.625 558.096H303.973C322.452 558.032 337.402 546.895 337.453 533.154V509.842C337.402 496.083 322.414 484.938 303.911 484.9Z" fill="#37966F"/>
<path d="M441.506 481.031C441.398 480.044 441.156 479.068 440.785 478.117C440.33 476.861 439.655 475.654 438.779 474.527C433.25 467.402 420.999 464.959 411.417 469.07C411.415 469.071 411.414 469.072 411.412 469.072L363.762 489.446L343.479 498.188C345.525 501.887 346.589 505.844 346.614 509.843V533.154C346.59 537.153 345.526 541.112 343.479 544.81L363.699 553.482L409.844 573.296C418.952 578.034 431.5 576.384 437.871 569.612C440.243 567.091 441.511 564.088 441.506 561.011V481.87C441.544 481.592 441.544 481.31 441.506 481.031Z" fill="#37966F"/>
<path d="M233.057 497.558L213.84 489.306L166.504 469.025C156.923 464.911 144.672 467.352 139.14 474.476C139.139 474.477 139.137 474.478 139.137 474.48C138.26 475.606 137.586 476.813 137.13 478.07C136.782 479.053 136.572 480.061 136.503 481.077C136.801 479.981 137.683 479.022 138.949 478.419L136.503 481.077C136.465 481.356 136.465 481.637 136.503 481.916V560.987C136.516 569.265 145.551 575.968 156.683 575.959C160.737 575.956 164.694 575.044 168.04 573.342L214.78 553.201L233.025 545.369C230.807 541.508 229.666 537.352 229.671 533.154V509.843C229.662 505.619 230.814 501.438 233.057 497.558Z" fill="#37966F"/>
</svg>
